<svg width="1320.0" height="1417.5" style="background-color:white" xmlns="http://www.w3.org/2000/svg"><path fill="none" d="M0.0 0.0 ,0.0 1417.0 ,1319.5 1417.0 ,1319.5 0.0 ,0.5 0.0 ," style="stroke:black"/><path fill="none" d="M645.0 62.5 ,645.5 62.0 ,691.5 62.0 ,692.0 62.5 ,709.5 63.0 ,710.0 63.5 ,730.5 65.0 ,766.5 70.5 ,787.0 75.0 ,809.0 81.0 ,828.5 87.5 ,846.5 94.5 ,861.0 101.0 ,881.5 111.5 ,901.5 123.5 ,914.0 132.0 ,930.5 144.5 ,944.0 156.0 ,960.5 172.0 ,972.0 184.5 ,993.5 212.0 ,1004.0 228.0 ,1014.0 245.5 ,1022.0 262.0 ,1029.0 280.5 ,1033.0 288.5 ,1044.0 294.5 ,1060.5 305.0 ,1078.5 319.5 ,1091.5 332.5 ,1097.5 339.5 ,1105.0 349.5 ,1113.0 362.5 ,1119.5 376.5 ,1128.0 401.5 ,1136.5 435.5 ,1139.0 450.0 ,1141.0 468.0 ,1141.0 475.0 ,1141.5 475.5 ,1141.0 507.5 ,1139.5 520.5 ,1136.0 538.5 ,1132.0 552.5 ,1126.0 568.0 ,1119.5 581.0 ,1112.0 593.0 ,1102.5 604.5 ,1096.0 614.0 ,1088.5 622.0 ,1085.5 702.5 ,1085.0 703.0 ,1084.5 721.0 ,1084.0 721.5 ,1084.0 729.5 ,1083.5 730.0 ,1083.5 738.0 ,1083.0 738.5 ,1080.0 789.5 ,1079.5 790.0 ,1078.5 809.0 ,1078.0 809.5 ,1072.5 878.0 ,1071.5 883.0 ,1071.5 888.0 ,1066.0 937.0 ,1066.0 941.5 ,1064.5 950.5 ,1064.5 955.0 ,1050.5 1067.5 ,1036.5 1163.0 ,1018.5 1269.0 ,1010.5 1310.5 ,1009.0 1314.0 ,1001.0 1322.5 ,994.0 1327.0 ,988.5 1329.5 ,974.5 1333.5 ,951.0 1337.0 ,931.0 1338.0 ,930.5 1338.5 ,919.5 1338.5 ,919.0 1339.0 ,847.0 1339.0 ,846.5 1338.5 ,806.5 1337.5 ,806.0 1337.0 ,775.5 1335.5 ,774.5 1334.5 ,773.5 1322.5 ,772.5 1318.0 ,772.5 1313.5 ,767.0 1268.0 ,767.0 1263.5 ,766.0 1259.0 ,766.0 1254.5 ,753.0 1137.5 ,751.5 1136.5 ,750.5 1137.0 ,738.5 1137.0 ,738.0 1137.5 ,689.0 1137.5 ,685.5 1137.0 ,684.5 1137.5 ,684.0 1139.0 ,681.5 1168.5 ,681.0 1169.0 ,680.0 1189.0 ,679.5 1189.5 ,677.5 1232.5 ,677.0 1233.0 ,677.0 1242.5 ,676.5 1243.0 ,674.5 1306.5 ,674.0 1307.0 ,674.0 1323.5 ,673.5 1324.5 ,672.0 1325.5 ,643.5 1335.0 ,616.5 1342.0 ,582.0 1348.0 ,563.0 1350.0 ,547.5 1350.5 ,547.0 1351.0 ,510.0 1351.0 ,509.5 1350.5 ,488.0 1349.5 ,463.0 1346.5 ,435.5 1341.5 ,418.5 1337.5 ,401.0 1332.5 ,379.5 1324.5 ,378.5 1323.0 ,373.5 1297.0 ,362.0 1231.0 ,352.0 1164.0 ,347.0 1123.5 ,344.0 1123.0 ,334.5 1125.0 ,311.0 1128.0 ,288.5 1129.0 ,288.0 1129.5 ,261.0 1129.0 ,260.5 1128.5 ,250.0 1128.0 ,232.5 1125.0 ,222.5 1122.5 ,209.5 1118.0 ,193.5 1110.0 ,186.0 1105.0 ,174.0 1094.5 ,167.5 1087.0 ,161.0 1077.5 ,155.5 1066.5 ,152.0 1056.5 ,146.5 1028.0 ,136.5 963.5 ,129.5 901.5 ,127.0 864.5 ,126.5 864.0 ,126.5 856.5 ,126.0 856.0 ,125.0 827.5 ,124.5 827.0 ,124.5 813.5 ,124.0 813.0 ,124.0 784.0 ,123.5 783.5 ,124.0 741.5 ,124.5 741.0 ,124.5 728.5 ,125.0 728.0 ,126.0 702.5 ,126.5 702.0 ,126.5 696.0 ,127.0 695.5 ,127.0 690.0 ,127.5 689.5 ,129.5 665.0 ,133.5 635.5 ,140.0 600.0 ,146.0 574.5 ,153.5 548.5 ,163.0 521.5 ,173.0 498.0 ,184.5 475.5 ,186.0 474.0 ,206.0 466.0 ,232.5 457.5 ,260.5 450.0 ,310.5 439.5 ,357.5 432.5 ,367.5 392.0 ,379.0 352.5 ,391.0 317.0 ,404.5 282.5 ,418.0 252.5 ,433.0 223.5 ,451.0 193.5 ,470.5 166.0 ,492.0 140.5 ,509.0 123.5 ,521.5 112.5 ,535.0 102.0 ,556.5 88.0 ,578.0 77.0 ,599.5 69.0 ,610.5 66.0 ,623.5 63.5 ,633.0 62.5 ,644.5 62.5 ," style="stroke:black"/><path fill="none" d="M343.0 485.0 ,342.5 485.5 ,339.5 485.5 ,339.0 486.0 ,336.0 486.0 ,335.5 486.5 ,333.5 486.5 ,333.0 487.0 ,330.0 487.0 ,329.5 487.5 ,327.0 487.5 ,326.5 488.0 ,324.5 488.0 ,324.0 488.5 ,321.5 488.5 ,321.0 489.0 ,318.5 489.0 ,318.0 489.5 ,316.0 489.5 ,315.5 490.0 ,313.0 490.0 ,312.5 490.5 ,310.5 490.5 ,310.0 491.0 ,308.0 491.0 ,307.5 491.5 ,305.5 491.5 ,305.0 492.0 ,302.5 492.0 ,302.0 492.5 ,300.5 492.5 ,300.0 493.0 ,298.0 493.0 ,297.5 493.5 ,295.5 493.5 ,295.0 494.0 ,293.0 494.0 ,292.5 494.5 ,291.0 494.5 ,290.5 495.0 ,288.5 495.0 ,288.0 495.5 ,286.0 495.5 ,285.5 496.0 ,284.0 496.0 ,283.5 496.5 ,281.5 496.5 ,281.0 497.0 ,279.5 497.0 ,279.0 497.5 ,277.5 497.5 ,277.0 498.0 ,275.5 498.0 ,275.0 498.5 ,273.5 498.5 ,273.0 499.0 ,271.5 499.0 ,271.0 499.5 ,269.0 499.5 ,268.5 500.0 ,267.0 500.0 ,266.5 500.5 ,265.5 500.5 ,265.0 501.0 ,263.5 501.0 ,263.0 501.5 ,261.5 501.5 ,261.0 502.0 ,259.5 502.0 ,259.0 502.5 ,257.5 502.5 ,257.0 503.0 ,256.0 503.0 ,255.5 503.5 ,254.0 503.5 ,253.5 504.0 ,252.5 504.0 ,252.0 504.5 ,250.5 504.5 ,250.0 505.0 ,249.0 505.0 ,248.5 505.5 ,247.0 505.5 ,246.5 506.0 ,245.5 506.0 ,245.0 506.5 ,243.5 506.5 ,243.0 507.0 ,242.0 507.0 ,241.5 507.5 ,240.5 507.5 ,240.0 508.0 ,238.5 508.0 ,238.0 508.5 ,237.0 508.5 ,236.5 509.0 ,235.5 509.0 ,235.0 509.5 ,234.0 509.5 ,233.5 510.0 ,232.5 510.0 ,232.0 510.5 ,231.0 510.5 ,230.5 511.0 ,229.5 511.0 ,229.0 511.5 ,228.0 511.5 ,227.5 512.0 ,226.5 512.0 ,226.0 512.5 ,225.0 512.5 ,224.5 513.0 ,223.5 513.0 ,223.0 513.5 ,222.0 513.5 ,220.5 515.0 ,220.5 515.5 ,220.0 516.0 ,220.0 516.5 ,219.5 517.0 ,219.5 517.5 ,219.0 518.0 ,219.0 518.5 ,218.0 520.0 ,218.0 521.0 ,217.5 521.5 ,217.5 522.0 ,217.0 522.5 ,217.0 523.0 ,216.0 524.5 ,216.0 525.5 ,215.5 526.0 ,215.5 526.5 ,214.5 528.0 ,214.5 529.0 ,214.0 529.5 ,214.0 530.0 ,213.0 531.5 ,213.0 532.5 ,212.5 533.0 ,212.5 533.5 ,211.5 535.0 ,211.5 536.0 ,211.0 536.5 ,211.0 537.5 ,210.0 539.0 ,210.0 540.0 ,209.0 541.5 ,209.0 542.5 ,208.5 543.0 ,208.5 544.0 ,207.5 545.5 ,207.5 546.5 ,207.0 547.0 ,207.0 548.0 ,206.5 548.5 ,206.5 549.5 ,205.5 551.0 ,205.5 552.0 ,205.0 552.5 ,205.0 553.5 ,204.5 554.0 ,204.5 555.0 ,204.0 555.5 ,204.0 556.5 ,203.5 557.0 ,203.5 558.0 ,203.0 558.5 ,203.0 559.5 ,202.5 560.0 ,202.5 561.0 ,202.0 561.5 ,202.0 562.5 ,201.5 563.0 ,201.5 564.0 ,201.0 564.5 ,201.0 565.5 ,200.5 566.0 ,200.5 567.5 ,200.0 568.0 ,200.0 569.0 ,199.5 569.5 ,199.5 570.5 ,199.0 571.0 ,199.0 572.5 ,198.5 573.0 ,198.5 574.0 ,198.0 574.5 ,198.0 575.5 ,197.5 576.0 ,197.5 577.5 ,197.0 578.0 ,197.0 579.5 ,196.5 580.0 ,196.5 581.0 ,196.0 581.5 ,196.0 583.0 ,195.5 583.5 ,195.5 585.0 ,195.0 585.5 ,195.0 586.5 ,194.5 587.0 ,194.5 589.0 ,194.0 589.5 ,194.0 590.5 ,193.5 591.0 ,193.5 592.5 ,193.0 593.0 ,193.0 595.0 ,192.5 595.5 ,192.5 597.0 ,192.0 597.5 ,192.0 599.0 ,191.5 599.5 ,191.5 601.0 ,191.0 601.5 ,191.0 606.0 ,190.5 606.5 ,190.5 608.0 ,190.0 608.5 ,190.0 610.0 ,189.5 610.5 ,189.5 613.0 ,189.0 613.5 ,189.0 615.0 ,188.5 615.5 ,188.5 617.0 ,188.0 617.5 ,188.0 620.0 ,187.5 620.5 ,187.5 623.0 ,187.0 623.5 ,187.0 625.0 ,186.5 625.5 ,186.5 628.5 ,186.0 629.0 ,186.0 631.0 ,185.5 631.5 ,185.5 634.0 ,185.0 634.5 ,185.0 637.0 ,184.5 637.5 ,184.5 640.0 ,184.0 640.5 ,184.0 643.0 ,183.5 643.5 ,183.5 646.5 ,183.0 647.0 ,183.0 650.0 ,182.5 650.5 ,182.5 653.0 ,182.0 653.5 ,182.0 657.0 ,181.5 657.5 ,181.5 661.0 ,181.0 661.5 ,181.0 664.5 ,180.5 665.0 ,180.5 668.5 ,180.0 669.0 ,180.0 673.5 ,179.5 674.0 ,179.5 678.0 ,179.0 678.5 ,179.0 682.5 ,178.5 683.0 ,178.5 688.0 ,178.0 688.5 ,178.0 693.5 ,177.5 694.0 ,177.5 698.5 ,177.0 699.0 ,177.0 706.5 ,176.5 707.0 ,176.5 713.5 ,176.0 714.0 ,176.0 720.5 ,175.5 721.0 ,175.5 733.5 ,175.0 734.0 ,175.0 747.0 ,174.5 747.5 ,174.5 770.0 ,174.0 770.5 ,174.0 783.5 ,174.5 784.0 ,174.5 807.0 ,175.0 807.5 ,175.0 808.0 ,174.5 808.5 ,174.5 809.0 ,175.0 809.5 ,175.0 821.5 ,175.5 822.0 ,175.5 836.0 ,176.0 836.5 ,176.0 844.0 ,176.5 844.5 ,176.5 852.0 ,177.0 852.5 ,177.0 861.5 ,177.5 862.0 ,177.5 867.5 ,178.0 868.0 ,178.0 873.5 ,178.5 874.0 ,178.5 880.5 ,179.0 881.0 ,179.0 886.5 ,179.5 887.0 ,179.5 891.5 ,180.0 892.0 ,180.0 897.5 ,180.5 898.0 ,180.5 903.0 ,181.0 903.5 ,181.0 907.5 ,181.5 908.0 ,181.5 913.0 ,182.0 913.5 ,182.0 917.5 ,182.5 918.0 ,182.5 921.5 ,183.0 922.0 ,183.0 926.5 ,183.5 927.0 ,183.5 931.0 ,184.0 931.5 ,184.0 935.0 ,184.5 935.5 ,184.5 939.0 ,185.0 939.5 ,185.0 943.5 ,185.5 944.0 ,185.5 947.5 ,186.0 948.0 ,186.0 951.0 ,186.5 951.5 ,186.5 955.5 ,187.0 956.0 ,187.0 959.0 ,187.5 959.5 ,187.5 962.0 ,188.0 962.5 ,188.0 966.5 ,188.5 967.0 ,188.5 969.5 ,189.0 970.0 ,189.0 973.0 ,189.5 973.5 ,189.5 977.0 ,190.0 977.5 ,190.0 980.0 ,190.5 980.5 ,190.5 983.0 ,191.0 983.5 ,191.0 987.0 ,191.5 987.5 ,191.5 990.0 ,192.0 990.5 ,192.0 992.5 ,192.5 993.0 ,192.5 996.5 ,193.0 997.0 ,193.0 999.5 ,193.5 1000.0 ,193.5 1002.0 ,194.0 1002.5 ,194.0 1005.5 ,194.5 1006.0 ,194.5 1008.0 ,195.0 1008.5 ,195.0 1011.0 ,195.5 1011.5 ,195.5 1014.0 ,196.0 1014.5 ,196.0 1017.0 ,196.5 1017.5 ,196.5 1019.5 ,197.0 1020.0 ,197.0 1022.5 ,197.5 1023.0 ,197.5 1025.5 ,198.0 1026.0 ,198.0 1028.0 ,198.5 1028.5 ,198.5 1030.5 ,199.0 1031.0 ,199.0 1033.5 ,199.5 1034.0 ,199.5 1035.5 ,200.0 1036.0 ,200.0 1038.5 ,200.5 1039.0 ,200.5 1041.0 ,201.0 1041.5 ,201.0 1043.5 ,201.5 1044.0 ,201.5 1045.0 ,202.0 1045.5 ,202.0 1046.5 ,202.5 1047.0 ,202.5 1047.5 ,203.0 1048.0 ,203.0 1048.5 ,203.5 1049.0 ,203.5 1049.5 ,204.0 1050.0 ,204.0 1050.5 ,204.5 1051.0 ,204.5 1051.5 ,205.0 1052.0 ,205.0 1052.5 ,206.5 1054.0 ,206.5 1054.5 ,207.0 1055.0 ,207.0 1055.5 ,209.5 1058.0 ,209.5 1058.5 ,210.0 1058.5 ,210.5 1059.0 ,210.5 1059.5 ,211.5 1060.5 ,212.0 1060.5 ,215.0 1063.5 ,215.5 1063.5 ,217.0 1065.0 ,217.5 1065.0 ,218.0 1065.5 ,218.5 1065.5 ,219.5 1066.5 ,220.0 1066.5 ,220.5 1067.0 ,221.0 1067.0 ,222.0 1068.0 ,222.5 1068.0 ,223.0 1068.5 ,223.5 1068.5 ,225.0 1069.5 ,226.0 1069.5 ,226.5 1070.0 ,227.0 1070.0 ,228.5 1071.0 ,229.5 1071.0 ,231.0 1072.0 ,232.0 1072.0 ,232.5 1072.5 ,233.5 1072.5 ,234.0 1073.0 ,235.0 1073.0 ,235.5 1073.5 ,236.5 1073.5 ,237.0 1074.0 ,238.5 1074.0 ,239.0 1074.5 ,240.5 1074.5 ,241.0 1075.0 ,242.5 1075.0 ,243.0 1075.5 ,245.0 1075.5 ,245.5 1076.0 ,248.0 1076.0 ,248.5 1076.5 ,250.5 1076.5 ,251.0 1077.0 ,254.0 1077.0 ,254.5 1077.5 ,258.5 1077.5 ,259.0 1078.0 ,263.5 1078.0 ,264.0 1078.5 ,274.0 1078.5 ,274.5 1079.0 ,283.0 1079.0 ,283.5 1078.5 ,295.0 1078.5 ,295.5 1078.0 ,301.5 1078.0 ,302.0 1077.5 ,307.0 1077.5 ,307.5 1077.0 ,312.0 1077.0 ,312.5 1076.5 ,315.5 1076.5 ,316.0 1076.0 ,319.5 1076.0 ,320.0 1075.5 ,323.5 1075.5 ,324.0 1075.0 ,326.5 1075.0 ,327.0 1074.5 ,329.5 1074.5 ,330.0 1074.0 ,333.0 1074.0 ,333.5 1073.5 ,335.5 1073.5 ,336.0 1073.0 ,338.0 1073.0 ,338.5 1072.5 ,340.0 1072.5 ,340.0 1071.5 ,339.5 1071.0 ,339.5 1067.0 ,339.0 1066.5 ,339.0 1062.5 ,338.5 1062.0 ,338.5 1057.0 ,338.0 1056.5 ,338.0 1052.0 ,337.5 1051.5 ,337.5 1046.5 ,337.0 1046.0 ,337.0 1041.0 ,336.5 1040.5 ,336.5 1035.5 ,336.0 1035.0 ,336.0 1030.5 ,335.5 1030.0 ,335.5 1024.5 ,335.0 1024.0 ,335.0 1018.0 ,334.5 1017.5 ,334.5 1013.0 ,334.0 1012.5 ,334.0 1006.5 ,333.5 1006.0 ,333.5 999.5 ,333.0 999.0 ,333.0 993.5 ,332.5 993.0 ,332.5 987.0 ,332.0 986.5 ,332.0 978.5 ,331.5 978.0 ,331.5 972.5 ,331.0 972.0 ,331.0 965.0 ,330.5 964.5 ,330.5 955.5 ,330.0 955.0 ,330.0 949.0 ,329.5 948.5 ,329.5 940.0 ,329.0 939.5 ,329.0 929.0 ,328.5 928.5 ,328.5 920.5 ,328.0 920.0 ,328.0 910.5 ,327.5 910.0 ,327.5 896.5 ,327.0 896.0 ,327.0 885.0 ,326.5 884.5 ,326.5 871.0 ,326.0 870.5 ,326.0 850.0 ,325.5 849.5 ,325.5 825.0 ,325.0 824.5 ,325.0 752.0 ,325.5 751.5 ,325.5 727.5 ,326.0 727.0 ,326.0 707.0 ,326.5 706.5 ,326.5 693.5 ,327.0 693.0 ,327.0 682.0 ,327.5 681.5 ,327.5 669.0 ,328.0 668.5 ,328.0 659.0 ,328.5 658.5 ,328.5 651.5 ,329.0 651.0 ,329.0 641.0 ,329.5 640.5 ,329.5 633.0 ,330.0 632.5 ,330.0 626.5 ,330.5 626.0 ,330.5 617.5 ,331.0 617.0 ,331.0 611.0 ,331.5 610.5 ,331.5 605.0 ,332.0 604.5 ,332.0 597.5 ,332.5 597.0 ,332.5 592.0 ,333.0 591.5 ,333.0 586.5 ,333.5 586.0 ,333.5 584.5 ,334.0 584.0 ,334.0 581.0 ,334.5 580.5 ,334.5 575.0 ,335.0 574.5 ,335.0 569.0 ,335.5 568.5 ,335.5 564.5 ,336.0 564.0 ,336.0 559.5 ,336.5 559.0 ,336.5 554.0 ,337.0 553.5 ,337.0 549.5 ,337.5 549.0 ,337.5 545.0 ,338.0 544.5 ,338.0 540.0 ,338.5 539.5 ,338.5 536.0 ,339.0 535.5 ,339.0 532.0 ,339.5 531.5 ,339.5 527.0 ,340.0 526.5 ,340.0 523.5 ,340.5 523.0 ,340.5 519.5 ,341.0 519.0 ,341.0 515.5 ,341.5 515.0 ,341.5 511.5 ,342.0 511.0 ,342.0 508.0 ,342.5 507.5 ,342.5 504.5 ,343.0 504.0 ,343.0 501.0 ,343.5 500.5 ,343.5 498.0 ,344.0 497.5 ,344.0 494.5 ,344.5 494.0 ,344.5 491.5 ,345.0 491.0 ,345.0 489.0 ,345.5 488.5 ,345.5 486.0 ,346.0 485.5 ,346.0 485.0 ,343.5 485.0 ," style="stroke:black"/><path fill="none" d="M859.0 308.0 ,858.5 308.5 ,838.0 308.5 ,837.5 309.0 ,824.5 309.0 ,824.0 309.5 ,815.5 309.5 ,815.0 310.0 ,805.5 310.0 ,805.0 310.5 ,797.0 310.5 ,796.5 311.0 ,791.0 311.0 ,790.5 311.5 ,784.0 311.5 ,783.5 312.0 ,777.5 312.0 ,777.0 312.5 ,772.5 312.5 ,772.0 313.0 ,767.0 313.0 ,766.5 313.5 ,761.5 313.5 ,761.0 314.0 ,757.5 314.0 ,757.0 314.5 ,752.5 314.5 ,752.0 315.0 ,748.0 315.0 ,747.5 315.5 ,744.5 315.5 ,744.0 316.0 ,740.5 316.0 ,740.0 316.5 ,736.5 316.5 ,736.0 317.0 ,733.0 317.0 ,732.5 317.5 ,729.5 317.5 ,729.0 318.0 ,726.0 318.0 ,725.5 318.5 ,723.0 318.5 ,722.5 319.0 ,720.0 319.0 ,719.5 319.5 ,716.5 319.5 ,716.0 320.0 ,713.5 320.0 ,713.0 320.5 ,711.0 320.5 ,710.5 321.0 ,708.0 321.0 ,707.5 321.5 ,705.5 321.5 ,705.0 322.0 ,703.0 322.0 ,702.5 322.5 ,700.5 322.5 ,700.0 323.0 ,698.0 323.0 ,697.5 323.5 ,695.5 323.5 ,695.0 324.0 ,693.0 324.0 ,692.5 324.5 ,691.0 324.5 ,690.5 325.0 ,689.0 325.0 ,688.5 325.5 ,686.5 325.5 ,686.0 326.0 ,684.5 326.0 ,684.0 326.5 ,683.0 326.5 ,682.5 327.0 ,680.5 327.0 ,680.0 327.5 ,679.0 327.5 ,678.5 328.0 ,677.0 328.0 ,676.5 328.5 ,675.0 328.5 ,674.5 329.0 ,673.5 329.0 ,673.0 329.5 ,672.0 329.5 ,671.5 330.0 ,670.0 330.0 ,669.5 330.5 ,668.5 330.5 ,668.0 331.0 ,667.0 331.0 ,666.5 331.5 ,665.5 331.5 ,665.0 332.0 ,664.0 332.0 ,663.5 332.5 ,662.5 332.5 ,662.0 333.0 ,661.0 333.0 ,660.5 333.5 ,659.5 333.5 ,659.0 334.0 ,658.0 334.0 ,657.5 334.5 ,656.5 334.5 ,655.5 335.5 ,654.5 335.5 ,654.0 336.0 ,653.0 336.0 ,652.5 336.5 ,651.5 336.5 ,650.0 337.5 ,649.0 337.5 ,648.5 338.0 ,648.0 338.0 ,647.5 338.5 ,647.0 338.5 ,646.5 339.0 ,646.0 339.0 ,645.5 339.5 ,645.0 339.5 ,644.5 340.0 ,644.0 340.0 ,643.0 341.0 ,642.5 341.0 ,641.5 342.0 ,641.0 342.0 ,640.0 343.0 ,639.5 343.0 ,638.0 344.5 ,637.5 344.5 ,635.5 346.5 ,635.0 346.5 ,630.0 351.5 ,630.0 352.0 ,627.5 354.5 ,627.5 355.0 ,626.0 356.5 ,626.0 357.0 ,624.5 358.5 ,624.5 359.0 ,623.5 360.0 ,623.5 360.5 ,623.0 361.0 ,623.0 361.5 ,622.0 362.5 ,622.0 363.0 ,621.5 363.5 ,621.5 364.0 ,620.5 365.0 ,620.5 365.5 ,620.0 366.0 ,620.0 366.5 ,619.5 367.0 ,619.5 367.5 ,619.0 368.0 ,619.0 368.5 ,618.5 369.0 ,618.5 369.5 ,618.0 370.0 ,618.0 370.5 ,617.0 372.0 ,617.0 373.0 ,616.5 373.5 ,616.5 374.0 ,616.0 374.5 ,616.0 375.5 ,615.0 377.0 ,615.0 378.0 ,614.5 378.5 ,614.5 379.5 ,613.5 381.0 ,613.5 382.5 ,613.0 383.0 ,613.0 384.0 ,612.5 384.5 ,612.5 385.5 ,612.0 386.0 ,612.0 387.5 ,611.5 388.0 ,611.5 389.5 ,611.0 390.0 ,611.0 391.0 ,610.5 391.5 ,610.5 393.5 ,610.0 394.0 ,610.0 395.5 ,609.5 396.0 ,609.5 398.0 ,609.0 398.5 ,609.0 401.0 ,608.5 401.5 ,608.5 404.0 ,608.0 404.5 ,608.0 407.5 ,607.5 408.0 ,607.5 411.5 ,607.0 412.0 ,607.0 417.0 ,606.5 417.5 ,606.5 425.5 ,606.0 426.0 ,606.0 445.5 ,606.5 446.0 ,606.5 455.0 ,607.0 455.5 ,607.0 461.5 ,607.5 462.0 ,607.5 466.5 ,608.0 467.0 ,608.0 471.0 ,608.5 471.5 ,608.5 475.5 ,609.0 476.0 ,609.0 479.0 ,609.5 479.5 ,609.5 482.5 ,610.0 483.0 ,610.0 486.0 ,610.5 486.5 ,610.5 489.0 ,611.0 489.5 ,611.0 492.0 ,611.5 492.5 ,611.5 495.0 ,612.0 495.5 ,612.0 498.0 ,612.5 498.5 ,612.5 500.5 ,613.0 501.0 ,613.0 503.0 ,613.5 503.5 ,613.5 506.0 ,614.0 506.5 ,614.0 508.0 ,614.5 508.5 ,614.5 510.5 ,615.0 511.0 ,615.0 512.5 ,615.5 513.0 ,615.5 514.5 ,616.0 515.0 ,616.0 516.0 ,616.5 516.5 ,616.5 517.5 ,617.0 518.0 ,617.0 519.0 ,617.5 519.5 ,617.5 520.5 ,618.0 521.0 ,618.0 522.0 ,618.5 522.5 ,618.5 523.5 ,619.5 525.0 ,619.5 526.0 ,620.0 526.5 ,620.0 527.0 ,621.0 528.5 ,621.0 529.5 ,621.5 530.0 ,621.5 530.5 ,622.0 531.0 ,622.0 531.5 ,622.5 532.0 ,622.5 532.5 ,623.0 533.0 ,623.0 533.5 ,623.5 534.0 ,623.5 534.5 ,624.0 535.0 ,624.0 535.5 ,624.5 536.0 ,624.5 536.5 ,625.5 537.5 ,625.5 538.0 ,626.0 538.5 ,626.0 539.0 ,626.5 539.5 ,626.5 540.0 ,627.5 541.0 ,627.5 541.5 ,628.5 542.5 ,628.5 543.0 ,629.5 544.0 ,629.5 544.5 ,630.5 545.5 ,630.5 546.0 ,632.0 547.5 ,632.0 548.0 ,633.0 549.0 ,633.0 549.5 ,635.0 551.5 ,635.0 552.0 ,638.0 555.0 ,638.0 555.5 ,645.0 562.5 ,645.5 562.5 ,649.0 566.0 ,649.5 566.0 ,651.0 567.5 ,651.5 567.5 ,653.0 569.0 ,653.5 569.0 ,655.0 570.5 ,655.5 570.5 ,656.5 571.5 ,657.0 571.5 ,658.0 572.5 ,658.5 572.5 ,659.0 573.0 ,659.5 573.0 ,660.5 574.0 ,661.0 574.0 ,661.5 574.5 ,662.0 574.5 ,663.0 575.5 ,663.5 575.5 ,664.0 576.0 ,664.5 576.0 ,665.5 577.0 ,666.0 577.0 ,666.5 577.5 ,667.0 577.5 ,667.5 578.0 ,668.0 578.0 ,668.5 578.5 ,669.0 578.5 ,670.0 579.5 ,670.5 579.5 ,671.0 580.0 ,671.5 580.0 ,672.0 580.5 ,672.5 580.5 ,673.0 581.0 ,673.5 581.0 ,674.0 581.5 ,674.5 581.5 ,675.0 582.0 ,675.5 582.0 ,676.0 582.5 ,676.5 582.5 ,677.0 583.0 ,677.5 583.0 ,678.0 583.5 ,678.5 583.5 ,680.0 584.5 ,681.0 584.5 ,681.5 585.0 ,682.0 585.0 ,682.5 585.5 ,683.0 585.5 ,684.5 586.5 ,685.5 586.5 ,686.0 587.0 ,686.5 587.0 ,688.0 588.0 ,689.0 588.0 ,690.5 589.0 ,691.5 589.0 ,692.0 589.5 ,692.5 589.5 ,693.0 590.0 ,694.0 590.0 ,695.5 591.0 ,696.5 591.0 ,697.0 591.5 ,698.0 591.5 ,698.5 592.0 ,699.5 592.0 ,701.0 593.0 ,702.0 593.0 ,702.5 593.5 ,703.5 593.5 ,704.0 594.0 ,705.0 594.0 ,705.5 594.5 ,706.5 594.5 ,707.0 595.0 ,708.0 595.0 ,708.5 595.5 ,709.5 595.5 ,710.0 596.0 ,711.0 596.0 ,711.5 596.5 ,713.0 596.5 ,713.5 597.0 ,714.5 597.0 ,715.0 597.5 ,716.0 597.5 ,716.5 598.0 ,718.0 598.0 ,718.5 598.5 ,719.5 598.5 ,720.0 599.0 ,721.5 599.0 ,722.0 599.5 ,723.5 599.5 ,724.0 600.0 ,725.0 600.0 ,725.5 600.5 ,727.0 600.5 ,727.5 601.0 ,729.0 601.0 ,729.5 601.5 ,731.0 601.5 ,731.5 602.0 ,733.5 602.0 ,734.0 602.5 ,735.5 602.5 ,736.0 603.0 ,737.5 603.0 ,738.0 603.5 ,740.0 603.5 ,740.5 604.0 ,742.5 604.0 ,743.0 604.5 ,745.0 604.5 ,745.5 605.0 ,747.5 605.0 ,748.0 605.5 ,750.0 605.5 ,750.5 606.0 ,753.0 606.0 ,753.5 606.5 ,755.5 606.5 ,756.0 607.0 ,758.5 607.0 ,759.0 607.5 ,762.0 607.5 ,762.5 608.0 ,765.0 608.0 ,765.5 608.5 ,768.5 608.5 ,769.0 609.0 ,772.0 609.0 ,772.5 609.5 ,775.5 609.5 ,776.0 610.0 ,780.0 610.0 ,780.5 610.5 ,784.5 610.5 ,785.0 611.0 ,789.0 611.0 ,789.5 611.5 ,794.5 611.5 ,795.0 612.0 ,798.5 612.0 ,799.0 612.5 ,802.5 612.5 ,803.0 613.0 ,807.5 613.0 ,808.0 613.5 ,812.0 613.5 ,812.5 614.0 ,817.0 614.0 ,817.5 614.5 ,823.0 614.5 ,823.5 615.0 ,829.0 615.0 ,829.5 615.5 ,834.5 615.5 ,835.0 616.0 ,842.0 616.0 ,842.5 616.5 ,850.0 616.5 ,850.5 617.0 ,858.5 617.0 ,859.0 617.5 ,870.5 617.5 ,871.0 618.0 ,888.5 618.0 ,889.0 618.5 ,913.5 618.5 ,914.0 618.0 ,930.0 618.0 ,930.5 617.5 ,940.0 617.5 ,940.5 617.0 ,947.5 617.0 ,948.0 616.5 ,954.0 616.5 ,954.5 616.0 ,959.5 616.0 ,960.0 615.5 ,964.0 615.5 ,964.5 615.0 ,968.0 615.0 ,968.5 614.5 ,972.5 614.5 ,973.0 614.0 ,976.0 614.0 ,976.5 613.5 ,979.5 613.5 ,980.0 613.0 ,983.0 613.0 ,983.5 612.5 ,985.5 612.5 ,986.0 612.0 ,988.5 612.0 ,989.0 611.5 ,991.5 611.5 ,992.0 611.0 ,994.0 611.0 ,994.5 610.5 ,996.0 610.5 ,996.5 610.0 ,999.0 610.0 ,999.5 609.5 ,1001.0 609.5 ,1001.5 609.0 ,1003.0 609.0 ,1003.5 608.5 ,1005.0 608.5 ,1005.5 608.0 ,1007.0 608.0 ,1007.5 607.5 ,1009.0 607.5 ,1009.5 607.0 ,1011.0 607.0 ,1011.5 606.5 ,1012.5 606.5 ,1013.0 606.0 ,1014.5 606.0 ,1015.0 605.5 ,1016.0 605.5 ,1016.5 605.0 ,1017.5 605.0 ,1018.0 604.5 ,1019.5 604.5 ,1020.0 604.0 ,1021.0 604.0 ,1021.5 603.5 ,1022.5 603.5 ,1024.0 602.5 ,1025.0 602.5 ,1025.5 602.0 ,1026.5 602.0 ,1028.0 601.0 ,1029.0 601.0 ,1030.5 600.0 ,1031.5 600.0 ,1032.0 599.5 ,1032.5 599.5 ,1033.0 599.0 ,1033.5 599.0 ,1034.0 598.5 ,1034.5 598.5 ,1036.0 597.5 ,1037.0 597.5 ,1037.5 597.0 ,1038.0 597.0 ,1039.0 596.0 ,1039.5 596.0 ,1040.0 595.5 ,1040.5 595.5 ,1041.0 595.0 ,1041.5 595.0 ,1042.0 594.5 ,1042.5 594.5 ,1043.0 594.0 ,1043.5 594.0 ,1044.5 593.0 ,1045.0 593.0 ,1046.0 592.0 ,1046.5 592.0 ,1047.5 591.0 ,1048.0 591.0 ,1049.5 589.5 ,1050.0 589.5 ,1052.0 587.5 ,1052.5 587.5 ,1057.0 583.0 ,1057.0 582.5 ,1059.0 580.5 ,1059.0 580.0 ,1060.0 579.0 ,1060.0 578.5 ,1060.5 578.0 ,1060.5 577.5 ,1061.0 577.0 ,1061.0 576.5 ,1062.0 575.5 ,1062.0 575.0 ,1062.5 574.5 ,1062.5 574.0 ,1064.5 572.0 ,1065.0 572.0 ,1066.5 570.5 ,1066.5 570.0 ,1068.5 568.0 ,1068.5 567.5 ,1070.0 566.0 ,1070.0 565.5 ,1071.5 564.0 ,1071.5 563.5 ,1072.5 562.5 ,1072.5 562.0 ,1073.0 561.5 ,1073.0 561.0 ,1074.0 560.0 ,1074.0 559.5 ,1075.0 558.5 ,1075.0 558.0 ,1075.5 557.5 ,1075.5 557.0 ,1076.0 556.5 ,1076.0 556.0 ,1076.5 555.5 ,1076.5 555.0 ,1077.0 554.5 ,1077.0 554.0 ,1077.5 553.5 ,1077.5 553.0 ,1078.0 552.5 ,1078.0 552.0 ,1078.5 551.5 ,1078.5 551.0 ,1079.0 550.5 ,1079.0 550.0 ,1079.5 549.5 ,1079.5 549.0 ,1080.0 548.5 ,1080.0 548.0 ,1081.0 546.5 ,1081.0 545.5 ,1082.0 544.0 ,1082.0 543.0 ,1082.5 542.5 ,1082.5 541.5 ,1083.5 540.0 ,1083.5 539.0 ,1084.0 538.5 ,1084.0 537.5 ,1084.5 537.0 ,1084.5 536.0 ,1085.0 535.5 ,1085.0 534.5 ,1085.5 534.0 ,1085.5 532.5 ,1086.0 532.0 ,1086.0 531.0 ,1086.5 530.5 ,1086.5 529.0 ,1087.0 528.5 ,1087.0 527.0 ,1087.5 526.5 ,1087.5 525.0 ,1088.0 524.5 ,1088.0 523.0 ,1088.5 522.5 ,1088.5 520.5 ,1089.0 520.0 ,1089.0 517.5 ,1089.5 517.0 ,1089.5 514.5 ,1090.0 514.0 ,1090.0 511.5 ,1090.5 511.0 ,1090.5 507.0 ,1091.0 506.5 ,1091.0 501.5 ,1091.5 501.0 ,1091.5 490.5 ,1092.0 490.0 ,1092.0 486.0 ,1091.5 485.5 ,1091.5 475.0 ,1091.0 474.5 ,1091.0 468.5 ,1090.5 468.0 ,1090.5 463.5 ,1090.0 463.0 ,1090.0 456.5 ,1089.5 456.0 ,1089.5 453.0 ,1089.0 452.5 ,1089.0 450.5 ,1088.5 450.0 ,1088.5 447.5 ,1088.0 447.0 ,1088.0 445.0 ,1087.5 444.5 ,1087.5 442.5 ,1087.0 442.0 ,1087.0 440.0 ,1086.5 439.5 ,1086.5 438.0 ,1086.0 437.5 ,1086.0 436.0 ,1085.5 435.5 ,1085.5 433.5 ,1085.0 433.0 ,1085.0 431.5 ,1084.5 431.0 ,1084.5 429.5 ,1084.0 429.0 ,1084.0 427.5 ,1083.5 427.0 ,1083.5 425.5 ,1083.0 425.0 ,1083.0 424.0 ,1082.5 423.5 ,1082.5 422.0 ,1082.0 421.5 ,1082.0 420.5 ,1081.5 420.0 ,1081.5 418.5 ,1081.0 418.0 ,1081.0 417.0 ,1080.5 416.5 ,1080.5 415.5 ,1080.0 415.0 ,1080.0 413.5 ,1079.5 413.0 ,1079.5 412.0 ,1079.0 411.5 ,1079.0 410.5 ,1078.5 410.0 ,1078.5 409.0 ,1078.0 408.5 ,1078.0 407.5 ,1077.5 407.0 ,1077.5 406.0 ,1077.0 405.5 ,1077.0 404.5 ,1076.5 404.0 ,1076.5 403.0 ,1076.0 402.5 ,1076.0 401.5 ,1075.5 401.0 ,1075.5 400.0 ,1074.5 398.5 ,1074.5 397.5 ,1074.0 397.0 ,1074.0 396.0 ,1073.0 394.5 ,1073.0 393.5 ,1072.5 393.0 ,1072.5 392.0 ,1072.0 391.5 ,1072.0 391.0 ,1071.5 390.5 ,1071.5 390.0 ,1071.0 389.5 ,1071.0 389.0 ,1070.5 388.5 ,1070.5 388.0 ,1070.0 387.5 ,1070.0 387.0 ,1069.5 386.5 ,1069.5 386.0 ,1069.0 385.5 ,1069.0 385.0 ,1068.5 384.5 ,1068.5 384.0 ,1067.5 383.0 ,1067.5 382.5 ,1067.0 382.0 ,1067.0 381.5 ,1066.0 380.5 ,1066.0 380.0 ,1065.0 379.0 ,1065.0 378.5 ,1064.0 377.5 ,1064.0 377.0 ,1062.5 375.5 ,1062.5 375.0 ,1061.0 373.5 ,1061.0 373.0 ,1059.5 371.5 ,1059.5 371.0 ,1057.5 369.0 ,1057.5 368.5 ,1053.0 364.0 ,1053.0 363.5 ,1047.5 358.0 ,1047.0 358.0 ,1042.5 353.5 ,1042.0 353.5 ,1039.5 351.0 ,1039.0 351.0 ,1037.0 349.0 ,1036.5 349.0 ,1035.0 347.5 ,1034.5 347.5 ,1033.0 346.0 ,1032.5 346.0 ,1031.5 345.0 ,1031.0 345.0 ,1030.0 344.0 ,1029.5 344.0 ,1028.5 343.0 ,1028.0 343.0 ,1027.0 342.0 ,1026.5 342.0 ,1025.5 341.0 ,1025.0 341.0 ,1024.0 340.0 ,1023.5 340.0 ,1023.0 339.5 ,1022.5 339.5 ,1021.5 338.5 ,1021.0 338.5 ,1020.5 338.0 ,1020.0 338.0 ,1019.0 337.0 ,1018.5 337.0 ,1018.0 336.5 ,1017.5 336.5 ,1017.0 336.0 ,1016.5 336.0 ,1016.0 335.5 ,1015.5 335.5 ,1015.0 335.0 ,1014.5 335.0 ,1013.5 334.0 ,1013.0 334.0 ,1012.5 333.5 ,1012.0 333.5 ,1011.5 333.0 ,1011.0 333.0 ,1010.5 332.5 ,1010.0 332.5 ,1009.5 332.0 ,1009.0 332.0 ,1007.5 331.0 ,1006.5 331.0 ,1006.0 330.5 ,1005.5 330.5 ,1005.0 330.0 ,1004.5 330.0 ,1004.0 329.5 ,1003.5 329.5 ,1002.0 328.5 ,1001.0 328.5 ,1000.5 328.0 ,1000.0 328.0 ,998.5 327.0 ,997.5 327.0 ,997.0 326.5 ,996.5 326.5 ,996.0 326.0 ,995.0 326.0 ,993.5 325.0 ,992.5 325.0 ,992.0 324.5 ,991.0 324.5 ,989.5 323.5 ,988.5 323.5 ,988.0 323.0 ,987.0 323.0 ,986.5 322.5 ,985.5 322.5 ,985.0 322.0 ,984.0 322.0 ,983.5 321.5 ,982.5 321.5 ,982.0 321.0 ,981.0 321.0 ,980.5 320.5 ,979.5 320.5 ,979.0 320.0 ,978.0 320.0 ,977.5 319.5 ,976.0 319.5 ,975.5 319.0 ,974.5 319.0 ,974.0 318.5 ,972.5 318.5 ,972.0 318.0 ,970.5 318.0 ,970.0 317.5 ,968.5 317.5 ,968.0 317.0 ,967.0 317.0 ,966.5 316.5 ,964.5 316.5 ,964.0 316.0 ,962.5 316.0 ,962.0 315.5 ,960.5 315.5 ,960.0 315.0 ,958.0 315.0 ,957.5 314.5 ,955.5 314.5 ,955.0 314.0 ,953.0 314.0 ,952.5 313.5 ,950.5 313.5 ,950.0 313.0 ,947.5 313.0 ,947.0 312.5 ,944.5 312.5 ,944.0 312.0 ,941.5 312.0 ,941.0 311.5 ,937.5 311.5 ,937.0 311.0 ,934.5 311.0 ,934.0 310.5 ,930.0 310.5 ,929.5 310.0 ,925.0 310.0 ,924.5 309.5 ,920.0 309.5 ,919.5 309.0 ,913.0 309.0 ,912.5 308.5 ,902.0 308.5 ,901.5 308.0 ,859.5 308.0 ," style="stroke:black"/><path fill="none" d="M649.0 112.0 ,648.5 112.5 ,636.0 112.5 ,625.5 114.0 ,606.5 119.5 ,588.5 127.5 ,566.5 141.0 ,547.0 156.5 ,525.5 178.0 ,506.0 202.0 ,487.5 229.5 ,470.0 260.5 ,452.5 299.0 ,439.0 333.0 ,439.0 334.5 ,436.0 341.5 ,428.0 367.0 ,426.5 370.0 ,414.0 414.0 ,402.0 465.5 ,394.0 507.5 ,394.0 511.5 ,392.5 518.5 ,392.5 522.5 ,389.5 543.0 ,383.0 613.0 ,383.0 620.5 ,380.0 660.0 ,379.0 692.0 ,378.5 692.5 ,378.5 710.0 ,378.0 710.5 ,377.5 746.0 ,377.0 746.5 ,377.0 830.0 ,377.5 830.5 ,378.5 885.5 ,379.0 886.0 ,380.0 920.0 ,381.0 928.5 ,383.0 970.0 ,389.5 1049.0 ,398.5 1129.5 ,400.0 1137.0 ,400.0 1141.0 ,405.0 1174.0 ,405.0 1177.5 ,406.5 1184.5 ,406.5 1188.0 ,407.5 1191.0 ,409.5 1207.5 ,412.5 1223.0 ,412.5 1226.5 ,423.0 1286.0 ,441.5 1291.0 ,464.5 1295.5 ,486.5 1298.5 ,513.5 1300.5 ,543.5 1300.5 ,569.5 1298.5 ,599.0 1294.0 ,624.5 1287.5 ,626.5 1228.5 ,630.0 1172.0 ,634.5 1126.0 ,639.0 1105.0 ,643.5 1092.5 ,646.0 1088.0 ,648.0 1086.0 ,652.0 1084.0 ,659.0 1082.0 ,668.0 1080.5 ,688.5 1079.0 ,722.5 1079.0 ,723.0 1079.5 ,769.5 1080.0 ,770.0 1080.5 ,770.5 1080.0 ,778.0 1080.5 ,848.0 1080.0 ,849.0 1080.5 ,849.5 1080.0 ,881.0 1080.0 ,881.5 1079.5 ,900.5 1079.5 ,901.0 1079.0 ,903.0 1080.0 ,902.5 1082.5 ,892.0 1093.0 ,884.5 1098.5 ,867.5 1108.0 ,853.0 1114.0 ,838.0 1119.0 ,823.0 1123.0 ,802.5 1127.0 ,811.0 1200.5 ,811.0 1205.0 ,812.0 1209.5 ,814.0 1232.5 ,815.5 1241.5 ,815.5 1246.5 ,817.0 1255.0 ,817.0 1260.0 ,818.5 1268.5 ,818.5 1273.5 ,820.0 1282.0 ,820.0 1287.0 ,820.5 1287.5 ,822.0 1287.0 ,833.0 1288.0 ,854.5 1288.0 ,855.0 1288.5 ,912.5 1288.5 ,913.0 1288.0 ,927.5 1288.0 ,947.5 1286.5 ,964.0 1284.0 ,975.0 1225.0 ,984.5 1164.5 ,986.0 1158.5 ,986.0 1155.0 ,987.5 1149.0 ,987.5 1145.5 ,993.5 1109.0 ,993.5 1105.5 ,1001.5 1052.0 ,1001.5 1048.0 ,1003.0 1041.0 ,1003.0 1037.0 ,1004.5 1029.5 ,1004.5 1025.5 ,1006.0 1018.0 ,1006.0 1013.5 ,1007.5 1006.0 ,1007.5 1001.5 ,1011.5 972.5 ,1014.0 946.0 ,1017.0 924.0 ,1017.0 918.5 ,1018.5 909.5 ,1018.5 904.0 ,1020.0 895.0 ,1020.5 884.5 ,1021.5 880.0 ,1021.5 874.0 ,1023.0 864.0 ,1025.0 835.5 ,1027.0 824.5 ,1033.5 735.0 ,1037.5 652.0 ,1010.0 659.5 ,985.0 664.0 ,959.0 667.0 ,937.0 668.5 ,923.5 668.5 ,923.0 669.0 ,863.0 668.5 ,818.0 665.5 ,763.5 659.5 ,727.0 653.0 ,695.0 644.5 ,669.0 635.0 ,649.5 626.0 ,626.0 612.0 ,611.0 600.0 ,597.0 585.5 ,585.5 570.0 ,578.0 557.0 ,573.5 547.5 ,567.5 531.0 ,564.5 519.5 ,559.5 491.5 ,556.5 467.0 ,555.0 434.0 ,555.5 433.5 ,556.0 412.5 ,558.0 395.5 ,562.5 374.5 ,567.0 360.5 ,572.0 348.5 ,577.5 338.0 ,585.5 326.0 ,592.5 317.5 ,601.0 309.0 ,609.0 302.5 ,621.5 294.5 ,631.0 290.0 ,665.5 279.0 ,705.0 270.5 ,756.5 263.5 ,817.5 259.0 ,871.0 258.0 ,871.5 257.5 ,896.5 257.5 ,897.0 258.0 ,925.0 259.0 ,939.0 260.5 ,967.5 265.5 ,959.0 250.5 ,941.5 226.0 ,930.0 212.5 ,912.0 194.5 ,896.0 181.0 ,873.5 165.0 ,853.0 153.0 ,839.0 146.0 ,816.5 136.5 ,801.0 131.0 ,774.5 123.5 ,750.5 118.5 ,731.0 115.5 ,699.0 112.5 ,649.5 112.0 ," style="stroke:black"/></svg>